<mxfile host="app.diagrams.net" modified="2023-06-10T12:26:30.155Z" agent="Mozilla/5.0 (Windows NT 10.0; Win64; x64; rv:109.0) Gecko/20100101 Firefox/113.0" etag="vE2qXGICsgi5qF-TY5dw" version="21.3.8" type="github">
  <diagram name="Strona-1" id="gp8J1sdUVaDvjNDtRzzz">
    <mxGraphModel dx="1434" dy="782" grid="1" gridSize="10" guides="1" tooltips="1" connect="1" arrows="1" fold="1" page="1" pageScale="1" pageWidth="827" pageHeight="1169" math="0" shadow="0">
      <root>
        <mxCell id="0" />
        <mxCell id="1" parent="0" />
        <mxCell id="40xRfDpTIpxhcdCHlVUi-1" value="Klient" style="rounded=0;whiteSpace=wrap;html=1;" vertex="1" parent="1">
          <mxGeometry x="340" y="90" width="120" height="60" as="geometry" />
        </mxCell>
        <mxCell id="40xRfDpTIpxhcdCHlVUi-2" value="Internet" style="ellipse;shape=cloud;whiteSpace=wrap;html=1;" vertex="1" parent="1">
          <mxGeometry x="265" y="210" width="270" height="170" as="geometry" />
        </mxCell>
        <mxCell id="40xRfDpTIpxhcdCHlVUi-4" style="edgeStyle=orthogonalEdgeStyle;rounded=0;orthogonalLoop=1;jettySize=auto;html=1;exitX=0.5;exitY=1;exitDx=0;exitDy=0;" edge="1" parent="1" source="40xRfDpTIpxhcdCHlVUi-3">
          <mxGeometry relative="1" as="geometry">
            <mxPoint x="590" y="120" as="targetPoint" />
          </mxGeometry>
        </mxCell>
        <mxCell id="40xRfDpTIpxhcdCHlVUi-3" value="" style="shape=partialRectangle;whiteSpace=wrap;html=1;bottom=1;right=1;left=1;top=0;fillColor=none;routingCenterX=-0.5;rotation=-90;" vertex="1" parent="1">
          <mxGeometry x="440" y="90" width="120" height="60" as="geometry" />
        </mxCell>
        <mxCell id="40xRfDpTIpxhcdCHlVUi-5" value="Backend" style="text;html=1;strokeColor=none;fillColor=none;align=center;verticalAlign=middle;whiteSpace=wrap;rounded=0;" vertex="1" parent="1">
          <mxGeometry x="650" y="430" width="80" height="30" as="geometry" />
        </mxCell>
        <mxCell id="40xRfDpTIpxhcdCHlVUi-6" value="Frontend" style="text;html=1;align=center;verticalAlign=middle;resizable=0;points=[];autosize=1;strokeColor=none;fillColor=none;" vertex="1" parent="1">
          <mxGeometry x="590" y="105" width="70" height="30" as="geometry" />
        </mxCell>
        <mxCell id="40xRfDpTIpxhcdCHlVUi-15" style="edgeStyle=orthogonalEdgeStyle;rounded=0;orthogonalLoop=1;jettySize=auto;html=1;exitX=0.5;exitY=1;exitDx=0;exitDy=0;" edge="1" parent="1" source="40xRfDpTIpxhcdCHlVUi-10">
          <mxGeometry relative="1" as="geometry">
            <mxPoint x="630" y="445" as="targetPoint" />
          </mxGeometry>
        </mxCell>
        <mxCell id="40xRfDpTIpxhcdCHlVUi-10" value="" style="shape=partialRectangle;whiteSpace=wrap;html=1;bottom=1;right=1;left=1;top=0;fillColor=none;routingCenterX=-0.5;rotation=-90;" vertex="1" parent="1">
          <mxGeometry x="462.5" y="412.5" width="120" height="65" as="geometry" />
        </mxCell>
      </root>
    </mxGraphModel>
  </diagram>
</mxfile>
